<svg width="126" height="69" viewBox="0 0 126 69" fill="none" xmlns="http://www.w3.org/2000/svg">
    <path
        d="M34.2805 0C15.3747 0 0 15.3747 0 34.2805C0 53.1864 15.3747 68.561 34.2805 68.561C53.1864 68.561 68.561 53.1864 68.561 34.2805C68.561 15.3747 53.1864 0 34.2805 0ZM34.2805 65.1876C17.2191 65.1876 3.37344 51.354 3.37344 34.2805C3.37344 17.207 17.207 3.37344 34.2805 3.37344C51.354 3.37344 65.1876 17.207 65.1876 34.2805C65.1876 51.354 51.354 65.1876 34.2805 65.1876Z"
        fill="white" />
    <path
        d="M90.8525 0C71.9467 0 56.572 15.3747 56.572 34.2805C56.572 53.1864 71.9467 68.561 90.8525 68.561C109.758 68.561 125.133 53.1864 125.133 34.2805C125.133 15.3747 109.758 0 90.8525 0ZM90.8525 65.1876C73.7912 65.1876 59.9455 51.354 59.9455 34.2805C59.9455 17.207 73.779 3.37344 90.8525 3.37344C107.926 3.37344 121.76 17.207 121.76 34.2805C121.76 51.354 107.926 65.1876 90.8525 65.1876Z"
        fill="white" />
    <path
        d="M106.578 40.4128C106.578 43.1431 104.54 44.5022 100.45 44.5022C96.361 44.5022 94.3103 43.1431 94.3103 40.4128V19.9658H90.2209V40.4128C90.2209 43.1431 88.1701 44.5022 84.0807 44.5022C79.9913 44.5022 77.9527 43.1431 77.9527 40.4128V19.9658H73.8633V40.4128C73.8633 45.8613 77.2731 48.5916 84.0807 48.5916C87.8425 48.5916 90.5728 47.7664 92.2595 46.0918C93.9462 47.7543 96.6765 48.5916 100.438 48.5916C107.258 48.5916 110.656 45.8613 110.656 40.4128V19.9658H106.566V40.4128H106.578Z"
        fill="white" />
    <path
        d="M48.6721 28.1446C48.6721 22.6961 45.2623 19.9658 38.4426 19.9658H17.9956V24.0552H38.4426C42.532 24.0552 44.5827 25.4143 44.5827 28.1446C44.5827 30.8749 42.532 32.234 38.4426 32.234H17.9956V48.5916H22.085V39.1022C26.3322 44.9997 33.0305 48.5916 40.3477 48.5916H48.66V44.8662H40.3477C34.0134 44.8662 28.2373 41.6141 24.7061 36.3234H38.4426C45.2623 36.3234 48.6721 33.5931 48.6721 28.1446Z"
        fill="white" />
</svg>