<svg width="126" height="69" viewBox="0 0 126 69" fill="none" xmlns="http://www.w3.org/2000/svg">
<path d="M34.7141 0.219482C15.8083 0.219482 0.433594 15.5941 0.433594 34.5C0.433594 53.4059 15.8083 68.7805 34.7141 68.7805C53.62 68.7805 68.9946 53.4059 68.9946 34.5C68.9946 15.5941 53.62 0.219482 34.7141 0.219482ZM34.7141 65.4071C17.6527 65.4071 3.80704 51.5735 3.80704 34.5C3.80704 17.4265 17.6406 3.59293 34.7141 3.59293C51.7876 3.59293 65.6212 17.4265 65.6212 34.5C65.6212 51.5735 51.7876 65.4071 34.7141 65.4071Z" fill="black"/>
<path d="M91.2864 0.219482C72.3805 0.219482 57.0059 15.5941 57.0059 34.5C57.0059 53.4059 72.3805 68.7805 91.2864 68.7805C110.192 68.7805 125.567 53.4059 125.567 34.5C125.567 15.5941 110.192 0.219482 91.2864 0.219482ZM91.2864 65.4071C74.225 65.4071 60.3793 51.5735 60.3793 34.5C60.3793 17.4265 74.2129 3.59293 91.2864 3.59293C108.36 3.59293 122.193 17.4265 122.193 34.5C122.193 51.5735 108.36 65.4071 91.2864 65.4071Z" fill="black"/>
<path d="M107.012 40.6323C107.012 43.3626 104.973 44.7217 100.884 44.7217C96.7946 44.7217 94.7438 43.3626 94.7438 40.6323V20.1853H90.6545V40.6323C90.6545 43.3626 88.6037 44.7217 84.5143 44.7217C80.4249 44.7217 78.3863 43.3626 78.3863 40.6323V20.1853H74.2969V40.6323C74.2969 46.0808 77.7067 48.8111 84.5143 48.8111C88.2761 48.8111 91.0064 47.9859 92.6931 46.3113C94.3798 47.9738 97.1101 48.8111 100.872 48.8111C107.692 48.8111 111.089 46.0808 111.089 40.6323V20.1853H107V40.6323H107.012Z" fill="black"/>
<path d="M49.1052 28.3641C49.1052 22.9156 45.6954 20.1853 38.8757 20.1853H18.4287V24.2747H38.8757C42.9651 24.2747 45.0158 25.6338 45.0158 28.3641C45.0158 31.0944 42.9651 32.4535 38.8757 32.4535H18.4287V48.8111H22.5181V39.3217C26.7653 45.2192 33.4636 48.8111 40.7808 48.8111H49.0931V45.0857H40.7808C34.4465 45.0857 28.6704 41.8336 25.1392 36.5429H38.8757C45.6954 36.5429 49.1052 33.8126 49.1052 28.3641Z" fill="black"/>
</svg>
